#!OML:ASF F:\VICON\USERDATA\INSTALL\Justin_Nancy\Justin_Nancy.ASF
:FULLY-SPECIFIED
:DEGREES
16
root -8.06564 17.4609 -28.7363 -0.0878079 -6.75159 -3.93376
lowerback 8.03342 -2.70618 -1.38142
upperback -1.62203 -3.38213 6.89531
thorax -5.72338 -1.51171 8.54951
lowerneck -6.0635 1.48456 -15.2372
upperneck 20.9768 3.28997 3.96138
head 7.15874 0.729807 4.08066
rclavicle 2.92773e-014 8.74653e-014
rhumerus -30.7934 7.437 -80.2461
rradius 33.8793
rwrist 3.11202
rhand -15.737 4.14523
rfingers 7.12502
rthumb 10.4539 -25.5749
lclavicle 2.92773e-014 8.74653e-014
lhumerus -42.1065 18.4548 85.469
lradius 28.8659
lwrist -13.9458
lhand -11.2048 31.0198
lfingers 7.12502
lthumb 14.8232 60.4697
rfemur -0.582597 6.10313 31.4036
rtibia 19.8145
rfoot -13.5659 -3.48898
rtoes 12.5794
lfemur -31.8123 0.15112 -15.3743
ltibia 44.1275
lfoot -7.81735 6.07357
ltoes -7.57823
17
root -8.07467 17.4619 -28.5811 -0.197581 -6.99449 -4.05654
lowerback 7.38086 -1.27323 0.692045
upperback -0.56156 -1.40485 5.15758
thorax -4.61976 -0.652994 5.1612
lowerneck -7.96656 -0.197419 -12.8951
upperneck 20.8951 0.792922 4.73361
head 7.69456 -0.196697 3.79627
rclavicle 2.85256e-014 -4.13472e-014
rhumerus -29.4382 1.15408 -80.4163
rradius 34.0123
rwrist 3.80622
rhand -15.0564 11.3391
rfingers 7.12502
rthumb 11.1104 -18.3468
lclavicle 2.85256e-014 -4.13472e-014
lhumerus -39.1139 13.4188 85.8622
lradius 27.7002
lwrist -13.587
lhand -11.6893 31.3051
lfingers 7.12502
lthumb 14.3564 60.7887
rfemur 0.355576 6.03288 31.5394
rtibia 19.3804
rfoot -13.8833 -3.37469
rtoes 12.3572
lfemur -31.5866 0.012828 -15.2231
ltibia 41.7832
lfoot -7.77485 6.70013
ltoes -6.97689
18
root -8.07911 17.459 -28.4227 -0.137313 -7.26588 -4.14021
lowerback 7.22795 -1.01509 1.09094
upperback -0.435706 -1.0475 4.89399
thorax -4.44269 -0.490966 4.60622
lowerneck -8.45562 -0.40338 -12.5907
upperneck 21.0879 0.493842 4.90545
head 7.87088 -0.301887 3.78727
rclavicle -7.62836e-015 3.57812e-014
rhumerus -28.9577 0.599346 -80.5443
rradius 34.143
rwrist 3.66229
rhand -15.846 14.3441
rfingers 7.12502
rthumb 10.3488 -15.3813
lclavicle -7.62836e-015 3.57812e-014
lhumerus -38.9719 13.1069 85.7096
lradius 27.2807
lwrist -13.5848
lhand -11.3283 34.3818
lfingers 7.12502
lthumb 14.7042 63.8404
rfemur 1.26192 6.05003 31.6098
rtibia 18.6761
rfoot -14.0028 -3.3189
rtoes 11.3479
lfemur -31.538 -0.301955 -15.1144
ltibia 39.3622
lfoot -7.52869 7.40672
ltoes -8.56759
19
root -8.08108 17.4531 -28.2628 0.0640148 -7.48154 -4.05275
lowerback 7.43682 -1.88335 -0.303647
upperback -1.20035 -2.24263 6.08182
thorax -5.18081 -1.01359 6.84436
lowerneck -7.08573 0.818861 -14.2551
upperneck 21.0287 2.3157 4.4793
head 7.44041 0.389299 4.04614
rclavicle 6.16232e-015 -1.90833e-014
rhumerus -29.3888 5.18767 -80.379
rradius 34.4113
rwrist 3.03851
rhand -16.1904 14.9056
rfingers 7.12502
rthumb 10.0165 -14.836
lclavicle 6.16232e-015 -1.90833e-014
lhumerus -41.5755 17.318 85.2104
lradius 27.4569
lwrist -13.8221
lhand -12.8412 27.2109
lfingers 7.12502
lthumb 13.2463 56.77
rfemur 2.04172 6.05077 31.4537
rtibia 17.8675
rfoot -14.0856 -3.08201
rtoes 10.5335
lfemur -31.6611 -0.863595 -15.1267
ltibia 36.9079
lfoot -7.24832 8.25451
ltoes -9.76486
20
root -8.08501 17.4477 -28.1064 0.279868 -7.44609 -4.08695
lowerback 7.20729 -1.65875 -0.125954
upperback -1.08745 -1.94268 5.9616
thorax -4.97662 -0.877204 6.56195
lowerneck -7.69381 0.398163 -14.087
upperneck 21.1394 1.80746 4.50329
head 7.63711 0.1607 3.99983
rclavicle 4.63417e-014 -4.77083e-014
rhumerus -28.7726 4.56868 -80.2198
rradius 34.6324
rwrist 2.88458
rhand -16.1623 14.1731
rfingers 7.12502
rthumb 10.0436 -15.5673
lclavicle 4.63417e-014 -4.77083e-014
lhumerus -41.2259 17.0877 85.3489
lradius 26.8755
lwrist -14.0374
lhand -11.6046 30.1571
lfingers 7.12502
lthumb 14.438 59.6349
rfemur 2.72754 5.93701 31.452
rtibia 17.2578
rfoot -14.2758 -2.97554
rtoes 10.2945
lfemur -31.8146 -1.4139 -14.994
ltibia 34.45
lfoot -7.13751 8.77138
ltoes -10.8424
21
root -8.08996 17.4362 -27.9481 0.394348 -7.63571 -4.32021
lowerback 7.07474 -1.47944 0.10236
upperback -1.01582 -1.68936 5.97199
thorax -4.86099 -0.76076 6.40524
lowerneck -7.60829 0.132822 -14.0275
upperneck 20.6084 1.41678 4.49459
head 7.48514 -1.16685e-005 3.9421
rclavicle 3.39425e-014 -4.77083e-014
rhumerus -28.4454 4.42164 -80.1491
rradius 34.9312
rwrist 2.68934
rhand -17.0616 12.9287
rfingers 7.12502
rthumb 9.1759 -16.8517
lclavicle 3.39425e-014 -4.77083e-014
lhumerus -41.2256 17.24 85.3387
lradius 26.3456
lwrist -14.3022
lhand -11.4767 31.2692
lfingers 7.12502
lthumb 14.5612 60.7381
rfemur 3.43443 5.82496 31.6776
rtibia 16.8964
rfoot -14.5967 -2.85938
rtoes 9.48304
lfemur -31.6813 -1.78602 -14.6021
ltibia 32.0099
lfoot -7.24033 9.25865
ltoes -10.2776
